<svg width="730" height="450" xmlns="http://www.w3.org/2000/svg">
 <g>
  <title>Layer 1</title>
  <path stroke="null" id="svg_8" d="m101,53l181,0l0,53l-181,0l0,-53z" opacity="undefined" fill="#007fff"/>
  <text font-weight="bold" xml:space="preserve" text-anchor="start" font-family="Noto Sans JP" font-size="24" stroke-width="0" id="svg_9" y="86" x="143" fill="#000000">Service A</text>
  <line stroke="#559E84" id="svg_16" y2="268" x2="346" y1="267" x1="33" stroke-dasharray="5,5" stroke-width="5" fill="none" transform="rotate(90 189.5 267.5)"/>
  <line stroke="#559E84" id="svg_17" y2="268" x2="705" y1="267" x1="392" stroke-dasharray="5,5" stroke-width="5" fill="none" transform="rotate(90 548.5 267.5)"/>
  <g id="svg_27" transform="rotate(180 366.806 377.26)">
   <line id="svg_25" y2="377" x2="537" y1="378" x1="194" stroke-width="5" stroke="#C48157" fill="none"/>
   <path stroke="#C48157" id="svg_26" d="m530.73518,377.25997l-11.12328,-13.00001l20.00002,13.00001l-20.00002,12.99999l11.12328,-12.99999z" stroke-width="5" fill="none"/>
  </g>
  <text xml:space="preserve" text-anchor="start" font-family="Noto Sans JP" font-size="24" id="svg_29" y="264" x="17" fill="#000000">Thread Blocked</text>
  <path stroke="#559E84" id="svg_32" d="m563,203l141,-1" opacity="undefined" stroke-width="3" fill="none"/>
  <text xml:space="preserve" text-anchor="start" font-family="Noto Sans JP" font-size="24" id="svg_34" y="179" x="566" fill="#000000">Latency</text>
  <path stroke="#559E84" id="svg_35" d="m563,317l141,-1" opacity="undefined" stroke-width="3" fill="none"/>
  <text xml:space="preserve" text-anchor="start" font-family="Noto Sans JP" font-size="24" id="svg_36" y="352" x="567" fill="#000000">Latency</text>
  <text xml:space="preserve" text-anchor="start" font-family="Noto Sans JP" font-size="24" id="svg_37" y="267" x="566" fill="#000000">Processing</text>
  <g id="svg_38">
   <line id="svg_18" y2="161" x2="539" y1="162" x1="196" stroke-width="5" stroke="#C48157" fill="#559E84"/>
   <path stroke="#C48157" id="svg_23" d="m532.73518,161.25997l-11.12328,-13l20.00002,13l-20.00002,13l11.12328,-13z" stroke-width="5" fill="#559E84"/>
  </g>
  <path stroke="null" id="svg_1" d="m461,53l181,0l0,53l-181,0l0,-53z" opacity="undefined" fill="#007fff"/>
  <text font-weight="bold" xml:space="preserve" text-anchor="start" font-family="Noto Sans JP" font-size="24" stroke-width="0" id="svg_11" y="86" x="504" fill="#000000">Service B</text>
 </g>

</svg>